<?xml version="1.0" encoding="UTF-8" standalone="no"?>
<!DOCTYPE svg PUBLIC "-//W3C//DTD SVG 1.1//EN"
 "http://www.w3.org/Graphics/SVG/1.1/DTD/svg11.dtd">
<!-- Generated by graphviz version 11.0.0 (20240428.1522)
 -->
<!-- Title: packages Pages: 1 -->
<svg width="1149pt" height="404pt"
 viewBox="0.00 0.00 1149.00 404.00" xmlns="http://www.w3.org/2000/svg" xmlns:xlink="http://www.w3.org/1999/xlink">
<g id="graph0" class="graph" transform="scale(1 1) rotate(0) translate(4 400)">
<title>packages</title>
<polygon fill="white" stroke="none" points="-4,4 -4,-400 1145,-400 1145,4 -4,4"/>
<!-- ArmaClassExporter -->
<g id="node1" class="node">
<title>ArmaClassExporter</title>
<polygon fill="none" stroke="black" points="126.25,-36 0,-36 0,0 126.25,0 126.25,-36"/>
<text text-anchor="middle" x="63.12" y="-12.57" font-family="Times New Roman,serif" font-size="14.00">ArmaClassExporter</text>
</g>
<!-- ArmaClassExporter.ParseExports -->
<g id="node2" class="node">
<title>ArmaClassExporter.ParseExports</title>
<polygon fill="none" stroke="black" points="349.62,-36 144.62,-36 144.62,0 349.62,0 349.62,-36"/>
<text text-anchor="middle" x="247.12" y="-12.57" font-family="Times New Roman,serif" font-size="14.00">ArmaClassExporter.ParseExports</text>
</g>
<!-- ArmaClassExporter.classes -->
<g id="node3" class="node">
<title>ArmaClassExporter.classes</title>
<polygon fill="none" stroke="black" points="537,-36 367.25,-36 367.25,0 537,0 537,-36"/>
<text text-anchor="middle" x="452.12" y="-12.57" font-family="Times New Roman,serif" font-size="14.00">ArmaClassExporter.classes</text>
</g>
<!-- ArmaClassExporter.classes.ArmaAmmoSharedProperties -->
<g id="node4" class="node">
<title>ArmaClassExporter.classes.ArmaAmmoSharedProperties</title>
<polygon fill="none" stroke="black" points="698.38,-252 359.88,-252 359.88,-216 698.38,-216 698.38,-252"/>
<text text-anchor="middle" x="529.12" y="-228.57" font-family="Times New Roman,serif" font-size="14.00">ArmaClassExporter.classes.ArmaAmmoSharedProperties</text>
</g>
<!-- ArmaClassExporter.classes.ArmaSharedProperties -->
<g id="node9" class="node">
<title>ArmaClassExporter.classes.ArmaSharedProperties</title>
<polygon fill="none" stroke="black" points="679.25,-324 379,-324 379,-288 679.25,-288 679.25,-324"/>
<text text-anchor="middle" x="529.12" y="-300.57" font-family="Times New Roman,serif" font-size="14.00">ArmaClassExporter.classes.ArmaSharedProperties</text>
</g>
<!-- ArmaClassExporter.classes.ArmaAmmoSharedProperties&#45;&gt;ArmaClassExporter.classes.ArmaSharedProperties -->
<g id="edge1" class="edge">
<title>ArmaClassExporter.classes.ArmaAmmoSharedProperties&#45;&gt;ArmaClassExporter.classes.ArmaSharedProperties</title>
<path fill="none" stroke="black" d="M529.12,-252.3C529.12,-259.68 529.12,-268.48 529.12,-276.75"/>
<polygon fill="black" stroke="black" points="529.13,-286.68 524.63,-276.68 529.13,-282.9 529.13,-276.68 529.13,-276.68 529.13,-276.68 529.13,-282.9 533.63,-276.68 529.13,-286.68"/>
</g>
<!-- ArmaClassExporter.classes.ArmaInfantryLoadedWeapon -->
<g id="node5" class="node">
<title>ArmaClassExporter.classes.ArmaInfantryLoadedWeapon</title>
<polygon fill="none" stroke="black" points="893,-36 555.25,-36 555.25,0 893,0 893,-36"/>
<text text-anchor="middle" x="724.12" y="-12.57" font-family="Times New Roman,serif" font-size="14.00">ArmaClassExporter.classes.ArmaInfantryLoadedWeapon</text>
</g>
<!-- ArmaClassExporter.classes.ArmaLoadedWeaponSharedProperties -->
<g id="node7" class="node">
<title>ArmaClassExporter.classes.ArmaLoadedWeaponSharedProperties</title>
<polygon fill="none" stroke="black" points="919.25,-108 529,-108 529,-72 919.25,-72 919.25,-108"/>
<text text-anchor="middle" x="724.12" y="-84.58" font-family="Times New Roman,serif" font-size="14.00">ArmaClassExporter.classes.ArmaLoadedWeaponSharedProperties</text>
</g>
<!-- ArmaClassExporter.classes.ArmaInfantryLoadedWeapon&#45;&gt;ArmaClassExporter.classes.ArmaLoadedWeaponSharedProperties -->
<g id="edge2" class="edge">
<title>ArmaClassExporter.classes.ArmaInfantryLoadedWeapon&#45;&gt;ArmaClassExporter.classes.ArmaLoadedWeaponSharedProperties</title>
<path fill="none" stroke="black" d="M724.12,-36.3C724.12,-43.68 724.12,-52.48 724.12,-60.75"/>
<polygon fill="black" stroke="black" points="724.13,-70.68 719.63,-60.68 724.13,-66.9 724.13,-60.68 724.13,-60.68 724.13,-60.68 724.13,-66.9 728.63,-60.68 724.13,-70.68"/>
</g>
<!-- ArmaClassExporter.classes.ArmaInfantryWeapon -->
<g id="node6" class="node">
<title>ArmaClassExporter.classes.ArmaInfantryWeapon</title>
<polygon fill="none" stroke="black" points="508.62,-108 213.62,-108 213.62,-72 508.62,-72 508.62,-108"/>
<text text-anchor="middle" x="361.12" y="-84.58" font-family="Times New Roman,serif" font-size="14.00">ArmaClassExporter.classes.ArmaInfantryWeapon</text>
</g>
<!-- ArmaClassExporter.classes.ArmaMagazineSharedProperties -->
<g id="node8" class="node">
<title>ArmaClassExporter.classes.ArmaMagazineSharedProperties</title>
<polygon fill="none" stroke="black" points="534.5,-180 181.75,-180 181.75,-144 534.5,-144 534.5,-180"/>
<text text-anchor="middle" x="358.12" y="-156.57" font-family="Times New Roman,serif" font-size="14.00">ArmaClassExporter.classes.ArmaMagazineSharedProperties</text>
</g>
<!-- ArmaClassExporter.classes.ArmaInfantryWeapon&#45;&gt;ArmaClassExporter.classes.ArmaMagazineSharedProperties -->
<g id="edge3" class="edge">
<title>ArmaClassExporter.classes.ArmaInfantryWeapon&#45;&gt;ArmaClassExporter.classes.ArmaMagazineSharedProperties</title>
<path fill="none" stroke="black" d="M360.38,-108.3C360.07,-115.68 359.69,-124.48 359.34,-132.75"/>
<polygon fill="black" stroke="black" points="358.91,-142.68 354.84,-132.49 359.07,-138.9 359.34,-132.69 359.34,-132.69 359.34,-132.69 359.07,-138.9 363.83,-132.88 358.91,-142.68"/>
</g>
<!-- ArmaClassExporter.classes.ArmaWeaponSharedProperties -->
<g id="node10" class="node">
<title>ArmaClassExporter.classes.ArmaWeaponSharedProperties</title>
<polygon fill="none" stroke="black" points="899.88,-180 552.38,-180 552.38,-144 899.88,-144 899.88,-180"/>
<text text-anchor="middle" x="726.12" y="-156.57" font-family="Times New Roman,serif" font-size="14.00">ArmaClassExporter.classes.ArmaWeaponSharedProperties</text>
</g>
<!-- ArmaClassExporter.classes.ArmaInfantryWeapon&#45;&gt;ArmaClassExporter.classes.ArmaWeaponSharedProperties -->
<g id="edge4" class="edge">
<title>ArmaClassExporter.classes.ArmaInfantryWeapon&#45;&gt;ArmaClassExporter.classes.ArmaWeaponSharedProperties</title>
<path fill="none" stroke="black" d="M452.29,-108.48C504.54,-118.5 570.25,-131.11 624.2,-141.45"/>
<polygon fill="black" stroke="black" points="633.98,-143.33 623.31,-145.86 630.26,-142.62 624.16,-141.44 624.16,-141.44 624.16,-141.44 630.26,-142.62 625.01,-137.03 633.98,-143.33"/>
</g>
<!-- ArmaClassExporter.classes.ArmaLoadedWeaponSharedProperties&#45;&gt;ArmaClassExporter.classes.ArmaMagazineSharedProperties -->
<g id="edge5" class="edge">
<title>ArmaClassExporter.classes.ArmaLoadedWeaponSharedProperties&#45;&gt;ArmaClassExporter.classes.ArmaMagazineSharedProperties</title>
<path fill="none" stroke="black" d="M632.71,-108.48C580.32,-118.5 514.43,-131.11 460.33,-141.45"/>
<polygon fill="black" stroke="black" points="450.52,-143.33 459.5,-137.03 454.23,-142.62 460.34,-141.45 460.34,-141.45 460.34,-141.45 454.23,-142.62 461.19,-145.87 450.52,-143.33"/>
</g>
<!-- ArmaClassExporter.classes.ArmaLoadedWeaponSharedProperties&#45;&gt;ArmaClassExporter.classes.ArmaWeaponSharedProperties -->
<g id="edge6" class="edge">
<title>ArmaClassExporter.classes.ArmaLoadedWeaponSharedProperties&#45;&gt;ArmaClassExporter.classes.ArmaWeaponSharedProperties</title>
<path fill="none" stroke="black" d="M724.62,-108.3C724.83,-115.68 725.08,-124.48 725.32,-132.75"/>
<polygon fill="black" stroke="black" points="725.6,-142.68 720.82,-132.81 725.49,-138.9 725.32,-132.68 725.32,-132.68 725.32,-132.68 725.49,-138.9 729.81,-132.55 725.6,-142.68"/>
</g>
<!-- ArmaClassExporter.classes.ArmaMagazineSharedProperties&#45;&gt;ArmaClassExporter.classes.ArmaAmmoSharedProperties -->
<g id="edge7" class="edge">
<title>ArmaClassExporter.classes.ArmaMagazineSharedProperties&#45;&gt;ArmaClassExporter.classes.ArmaAmmoSharedProperties</title>
<path fill="none" stroke="black" d="M400.83,-180.48C423.77,-189.87 452.25,-201.53 476.54,-211.47"/>
<polygon fill="black" stroke="black" points="485.54,-215.16 474.58,-215.53 482.04,-213.72 476.28,-211.37 476.28,-211.37 476.28,-211.37 482.04,-213.72 477.99,-207.2 485.54,-215.16"/>
</g>
<!-- ArmaClassExporter.classes.ArmaMagazineSharedProperties&#45;&gt;ArmaClassExporter.classes.ArmaSharedProperties -->
<g id="edge8" class="edge">
<title>ArmaClassExporter.classes.ArmaMagazineSharedProperties&#45;&gt;ArmaClassExporter.classes.ArmaSharedProperties</title>
<path fill="none" stroke="black" d="M350.57,-180.27C343.35,-199.7 335.65,-231.25 351.12,-252 360.95,-265.18 391.19,-276.27 424.02,-284.84"/>
<polygon fill="black" stroke="black" points="433.56,-287.24 422.77,-289.17 429.9,-286.32 423.87,-284.8 423.87,-284.8 423.87,-284.8 429.9,-286.32 424.96,-280.44 433.56,-287.24"/>
</g>
<!-- ArmaClassExporter.classes.ExportProperties -->
<g id="node11" class="node">
<title>ArmaClassExporter.classes.ExportProperties</title>
<polygon fill="none" stroke="black" points="663.5,-396 394.75,-396 394.75,-360 663.5,-360 663.5,-396"/>
<text text-anchor="middle" x="529.12" y="-372.57" font-family="Times New Roman,serif" font-size="14.00">ArmaClassExporter.classes.ExportProperties</text>
</g>
<!-- ArmaClassExporter.classes.ArmaSharedProperties&#45;&gt;ArmaClassExporter.classes.ExportProperties -->
<g id="edge9" class="edge">
<title>ArmaClassExporter.classes.ArmaSharedProperties&#45;&gt;ArmaClassExporter.classes.ExportProperties</title>
<path fill="none" stroke="black" d="M529.12,-324.3C529.12,-331.68 529.12,-340.48 529.12,-348.75"/>
<polygon fill="black" stroke="black" points="529.13,-358.68 524.63,-348.68 529.13,-354.9 529.13,-348.68 529.13,-348.68 529.13,-348.68 529.13,-354.9 533.63,-348.68 529.13,-358.68"/>
</g>
<!-- ArmaClassExporter.classes.ArmaWeaponSharedProperties&#45;&gt;ArmaClassExporter.classes.ArmaSharedProperties -->
<g id="edge10" class="edge">
<title>ArmaClassExporter.classes.ArmaWeaponSharedProperties&#45;&gt;ArmaClassExporter.classes.ArmaSharedProperties</title>
<path fill="none" stroke="black" d="M727.32,-180.41C727.69,-200.27 725.14,-232.5 707.12,-252 694.5,-265.66 678.53,-275.86 661.37,-283.45"/>
<polygon fill="black" stroke="black" points="652.26,-287.17 659.82,-279.22 655.76,-285.74 661.52,-283.39 661.52,-283.39 661.52,-283.39 655.76,-285.74 663.22,-287.56 652.26,-287.17"/>
</g>
<!-- ArmaClassExporter.eval_param_value -->
<g id="node12" class="node">
<title>ArmaClassExporter.eval_param_value</title>
<polygon fill="none" stroke="black" points="1141,-36 911.25,-36 911.25,0 1141,0 1141,-36"/>
<text text-anchor="middle" x="1026.12" y="-12.57" font-family="Times New Roman,serif" font-size="14.00">ArmaClassExporter.eval_param_value</text>
</g>
</g>
</svg>
