<?xml version="1.0" encoding="UTF-8" standalone="no"?>
<!DOCTYPE svg PUBLIC "-//W3C//DTD SVG 1.1//EN"
 "http://www.w3.org/Graphics/SVG/1.1/DTD/svg11.dtd">
<!-- Generated by graphviz version 11.0.0 (20240428.1522)
 -->
<!-- Title: classes Pages: 1 -->
<svg width="5268pt" height="135pt"
 viewBox="0.00 0.00 5268.12 135.25" xmlns="http://www.w3.org/2000/svg" xmlns:xlink="http://www.w3.org/1999/xlink">
<g id="graph0" class="graph" transform="scale(1 1) rotate(0) translate(4 131.25)">
<title>classes</title>
<polygon fill="white" stroke="none" points="-4,4 -4,-131.25 5264.12,-131.25 5264.12,4 -4,4"/>
<!-- Exports.#Rewrite.ArmaClassExporter.classes.Arma.Arma -->
<g id="node1" class="node">
<title>Exports.#Rewrite.ArmaClassExporter.classes.Arma.Arma</title>
<polygon fill="none" stroke="black" points="0,-39.88 0,-87.38 340.75,-87.38 340.75,-39.88 0,-39.88"/>
<text text-anchor="start" x="8" y="-70.08" font-family="Times New Roman,serif" font-size="14.00">Exports.#Rewrite.ArmaClassExporter.classes.Arma.Arma</text>
<polyline fill="none" stroke="black" points="0,-63.62 340.75,-63.62"/>
<polyline fill="none" stroke="black" points="0,-63.62 340.75,-63.62"/>
<text text-anchor="start" x="168.5" y="-46.33" font-family="Times New Roman,serif" font-size="14.00"> </text>
</g>
<!-- Exports.#Rewrite.ArmaClassExporter.classes.ArmaAmmo.ArmaAmmo -->
<g id="node2" class="node">
<title>Exports.#Rewrite.ArmaClassExporter.classes.ArmaAmmo.ArmaAmmo</title>
<polygon fill="none" stroke="black" points="358.75,-39.88 358.75,-87.38 776,-87.38 776,-39.88 358.75,-39.88"/>
<text text-anchor="start" x="366.75" y="-70.08" font-family="Times New Roman,serif" font-size="14.00">Exports.#Rewrite.ArmaClassExporter.classes.ArmaAmmo.ArmaAmmo</text>
<polyline fill="none" stroke="black" points="358.75,-63.62 776,-63.62"/>
<polyline fill="none" stroke="black" points="358.75,-63.62 776,-63.62"/>
<text text-anchor="start" x="565.5" y="-46.33" font-family="Times New Roman,serif" font-size="14.00"> </text>
</g>
<!-- Exports.#Rewrite.ArmaClassExporter.classes.ArmaLoadedWeapon.ArmaLoadedWeapon -->
<g id="node3" class="node">
<title>Exports.#Rewrite.ArmaClassExporter.classes.ArmaLoadedWeapon.ArmaLoadedWeapon</title>
<polygon fill="none" stroke="black" points="794,-20.12 794,-107.12 1314.75,-107.12 1314.75,-20.12 794,-20.12"/>
<text text-anchor="start" x="802" y="-89.83" font-family="Times New Roman,serif" font-size="14.00">Exports.#Rewrite.ArmaClassExporter.classes.ArmaLoadedWeapon.ArmaLoadedWeapon</text>
<polyline fill="none" stroke="black" points="794,-83.38 1314.75,-83.38"/>
<text text-anchor="start" x="1028.88" y="-66.08" font-family="Times New Roman,serif" font-size="14.00">magazine</text>
<text text-anchor="start" x="1028.88" y="-50.33" font-family="Times New Roman,serif" font-size="14.00">weapon</text>
<polyline fill="none" stroke="black" points="794,-43.88 1314.75,-43.88"/>
<text text-anchor="start" x="1052.5" y="-26.57" font-family="Times New Roman,serif" font-size="14.00"> </text>
</g>
<!-- Exports.#Rewrite.ArmaClassExporter.classes.ArmaMagazine.ArmaMagazine -->
<g id="node4" class="node">
<title>Exports.#Rewrite.ArmaClassExporter.classes.ArmaMagazine.ArmaMagazine</title>
<polygon fill="none" stroke="black" points="1332.5,-20.12 1332.5,-107.12 1778.25,-107.12 1778.25,-20.12 1332.5,-20.12"/>
<text text-anchor="start" x="1340.5" y="-89.83" font-family="Times New Roman,serif" font-size="14.00">Exports.#Rewrite.ArmaClassExporter.classes.ArmaMagazine.ArmaMagazine</text>
<polyline fill="none" stroke="black" points="1332.5,-83.38 1778.25,-83.38"/>
<text text-anchor="start" x="1489.75" y="-66.08" font-family="Times New Roman,serif" font-size="14.00">ammo</text>
<text text-anchor="start" x="1489.75" y="-50.33" font-family="Times New Roman,serif" font-size="14.00">ammo_class_name : str</text>
<polyline fill="none" stroke="black" points="1332.5,-43.88 1778.25,-43.88"/>
<text text-anchor="start" x="1553.5" y="-26.57" font-family="Times New Roman,serif" font-size="14.00"> </text>
</g>
<!-- Exports.#Rewrite.ArmaClassExporter.classes.ArmaU.ArmaU -->
<g id="node5" class="node">
<title>Exports.#Rewrite.ArmaClassExporter.classes.ArmaU.ArmaU</title>
<polygon fill="none" stroke="black" points="1796.25,-39.88 1796.25,-87.38 2156.5,-87.38 2156.5,-39.88 1796.25,-39.88"/>
<text text-anchor="start" x="1804.25" y="-70.08" font-family="Times New Roman,serif" font-size="14.00">Exports.#Rewrite.ArmaClassExporter.classes.ArmaU.ArmaU</text>
<polyline fill="none" stroke="black" points="1796.25,-63.62 2156.5,-63.62"/>
<polyline fill="none" stroke="black" points="1796.25,-63.62 2156.5,-63.62"/>
<text text-anchor="start" x="1974.5" y="-46.33" font-family="Times New Roman,serif" font-size="14.00"> </text>
</g>
<!-- Exports.#Rewrite.ArmaClassExporter.classes.ArmaWeapon.ArmaWeapon -->
<g id="node6" class="node">
<title>Exports.#Rewrite.ArmaClassExporter.classes.ArmaWeapon.ArmaWeapon</title>
<polygon fill="none" stroke="black" points="2174.75,-39.88 2174.75,-87.38 2610,-87.38 2610,-39.88 2174.75,-39.88"/>
<text text-anchor="start" x="2182.75" y="-70.08" font-family="Times New Roman,serif" font-size="14.00">Exports.#Rewrite.ArmaClassExporter.classes.ArmaWeapon.ArmaWeapon</text>
<polyline fill="none" stroke="black" points="2174.75,-63.62 2610,-63.62"/>
<polyline fill="none" stroke="black" points="2174.75,-63.62 2610,-63.62"/>
<text text-anchor="start" x="2390.5" y="-46.33" font-family="Times New Roman,serif" font-size="14.00"> </text>
</g>
<!-- Exports.#Rewrite.ArmaClassExporter.classes.ExportProperties.ExportProperties -->
<g id="node7" class="node">
<title>Exports.#Rewrite.ArmaClassExporter.classes.ExportProperties.ExportProperties</title>
<polygon fill="none" stroke="black" points="2628.5,-20.12 2628.5,-107.12 3098.25,-107.12 3098.25,-20.12 2628.5,-20.12"/>
<text text-anchor="start" x="2636.5" y="-89.83" font-family="Times New Roman,serif" font-size="14.00">Exports.#Rewrite.ArmaClassExporter.classes.ExportProperties.ExportProperties</text>
<polyline fill="none" stroke="black" points="2628.5,-83.38 3098.25,-83.38"/>
<text text-anchor="start" x="2790.62" y="-66.08" font-family="Times New Roman,serif" font-size="14.00">arma_module : NoneType</text>
<text text-anchor="start" x="2790.62" y="-50.33" font-family="Times New Roman,serif" font-size="14.00">csv_export : list</text>
<polyline fill="none" stroke="black" points="2628.5,-43.88 3098.25,-43.88"/>
<text text-anchor="start" x="2745.25" y="-26.57" font-family="Times New Roman,serif" font-size="14.00">load_properties(properties_mapping: dict)</text>
</g>
<!-- Exports.#Rewrite.ArmaClassExporter.classes.tests.test_Arma.TestArma -->
<g id="node8" class="node">
<title>Exports.#Rewrite.ArmaClassExporter.classes.tests.test_Arma.TestArma</title>
<polygon fill="none" stroke="black" points="3116.5,-39.88 3116.5,-87.38 3538.25,-87.38 3538.25,-39.88 3116.5,-39.88"/>
<text text-anchor="start" x="3124.5" y="-70.08" font-family="Times New Roman,serif" font-size="14.00">Exports.#Rewrite.ArmaClassExporter.classes.tests.test_Arma.TestArma</text>
<polyline fill="none" stroke="black" points="3116.5,-63.62 3538.25,-63.62"/>
<polyline fill="none" stroke="black" points="3116.5,-63.62 3538.25,-63.62"/>
<text text-anchor="start" x="3295.88" y="-46.33" font-family="Times New Roman,serif" font-size="14.00">test_arma()</text>
</g>
<!-- Exports.#Rewrite.ArmaClassExporter.classes.tests.test_ArmaAmmo.TestArma -->
<g id="node9" class="node">
<title>Exports.#Rewrite.ArmaClassExporter.classes.tests.test_ArmaAmmo.TestArma</title>
<polygon fill="none" stroke="black" points="3556.38,-39.88 3556.38,-87.38 4016.38,-87.38 4016.38,-39.88 3556.38,-39.88"/>
<text text-anchor="start" x="3564.38" y="-70.08" font-family="Times New Roman,serif" font-size="14.00">Exports.#Rewrite.ArmaClassExporter.classes.tests.test_ArmaAmmo.TestArma</text>
<polyline fill="none" stroke="black" points="3556.38,-63.62 4016.38,-63.62"/>
<polyline fill="none" stroke="black" points="3556.38,-63.62 4016.38,-63.62"/>
<text text-anchor="start" x="3733.88" y="-46.33" font-family="Times New Roman,serif" font-size="14.00">test_ArmaAmmo()</text>
</g>
<!-- Exports.#Rewrite.ArmaClassExporter.classes.tests.test_ArmaMagazine.TestArma -->
<g id="node10" class="node">
<title>Exports.#Rewrite.ArmaClassExporter.classes.tests.test_ArmaMagazine.TestArma</title>
<polygon fill="none" stroke="black" points="4034.25,-39.88 4034.25,-87.38 4508.5,-87.38 4508.5,-39.88 4034.25,-39.88"/>
<text text-anchor="start" x="4042.25" y="-70.08" font-family="Times New Roman,serif" font-size="14.00">Exports.#Rewrite.ArmaClassExporter.classes.tests.test_ArmaMagazine.TestArma</text>
<polyline fill="none" stroke="black" points="4034.25,-63.62 4508.5,-63.62"/>
<polyline fill="none" stroke="black" points="4034.25,-63.62 4508.5,-63.62"/>
<text text-anchor="start" x="4211.75" y="-46.33" font-family="Times New Roman,serif" font-size="14.00">test_ArmaMagazine()</text>
</g>
<!-- Exports.#Rewrite.tests.test_eval_param_value.TestDecimalize -->
<g id="node11" class="node">
<title>Exports.#Rewrite.tests.test_eval_param_value.TestDecimalize</title>
<polygon fill="none" stroke="black" points="4526.12,-39.88 4526.12,-87.38 4888.62,-87.38 4888.62,-39.88 4526.12,-39.88"/>
<text text-anchor="start" x="4534.12" y="-70.08" font-family="Times New Roman,serif" font-size="14.00">Exports.#Rewrite.tests.test_eval_param_value.TestDecimalize</text>
<polyline fill="none" stroke="black" points="4526.12,-63.62 4888.62,-63.62"/>
<polyline fill="none" stroke="black" points="4526.12,-63.62 4888.62,-63.62"/>
<text text-anchor="start" x="4660.5" y="-46.33" font-family="Times New Roman,serif" font-size="14.00">test_decimalize()</text>
</g>
<!-- Exports.#Rewrite.tests.test_eval_param_value.TestEvalExpr -->
<g id="node12" class="node">
<title>Exports.#Rewrite.tests.test_eval_param_value.TestEvalExpr</title>
<polygon fill="none" stroke="black" points="4906.62,-0.5 4906.62,-126.75 5260.12,-126.75 5260.12,-0.5 4906.62,-0.5"/>
<text text-anchor="start" x="4914.62" y="-109.45" font-family="Times New Roman,serif" font-size="14.00">Exports.#Rewrite.tests.test_eval_param_value.TestEvalExpr</text>
<polyline fill="none" stroke="black" points="4906.62,-103 5260.12,-103"/>
<polyline fill="none" stroke="black" points="4906.62,-103 5260.12,-103"/>
<text text-anchor="start" x="5006.12" y="-85.7" font-family="Times New Roman,serif" font-size="14.00">test_basic_operations()</text>
<text text-anchor="start" x="5006.12" y="-69.95" font-family="Times New Roman,serif" font-size="14.00">test_division()</text>
<text text-anchor="start" x="5006.12" y="-54.2" font-family="Times New Roman,serif" font-size="14.00">test_errors()</text>
<text text-anchor="start" x="5006.12" y="-38.45" font-family="Times New Roman,serif" font-size="14.00">test_operator_precedence()</text>
<text text-anchor="start" x="5006.12" y="-22.7" font-family="Times New Roman,serif" font-size="14.00">test_power_operations()</text>
<text text-anchor="start" x="5006.12" y="-6.95" font-family="Times New Roman,serif" font-size="14.00">test_unary_operations()</text>
</g>
</g>
</svg>
