<?xml version="1.0" encoding="UTF-8" standalone="no"?>
<!DOCTYPE svg PUBLIC "-//W3C//DTD SVG 1.1//EN"
 "http://www.w3.org/Graphics/SVG/1.1/DTD/svg11.dtd">
<!-- Generated by graphviz version 11.0.0 (20240428.1522)
 -->
<!-- Title: packages Pages: 1 -->
<svg width="4791pt" height="332pt"
 viewBox="0.00 0.00 4791.12 332.00" xmlns="http://www.w3.org/2000/svg" xmlns:xlink="http://www.w3.org/1999/xlink">
<g id="graph0" class="graph" transform="scale(1 1) rotate(0) translate(4 328)">
<title>packages</title>
<polygon fill="white" stroke="none" points="-4,4 -4,-328 4787.12,-328 4787.12,4 -4,4"/>
<!-- Exports.#Rewrite -->
<g id="node1" class="node">
<title>Exports.#Rewrite</title>
<polygon fill="none" stroke="black" points="114.25,-36 0,-36 0,0 114.25,0 114.25,-36"/>
<text text-anchor="middle" x="57.12" y="-12.57" font-family="Times New Roman,serif" font-size="14.00">Exports.#Rewrite</text>
</g>
<!-- Exports.#Rewrite.ArmaClassExporter -->
<g id="node2" class="node">
<title>Exports.#Rewrite.ArmaClassExporter</title>
<polygon fill="none" stroke="black" points="360.25,-36 132,-36 132,0 360.25,0 360.25,-36"/>
<text text-anchor="middle" x="246.12" y="-12.57" font-family="Times New Roman,serif" font-size="14.00">Exports.#Rewrite.ArmaClassExporter</text>
</g>
<!-- Exports.#Rewrite.ArmaClassExporter.classes -->
<g id="node3" class="node">
<title>Exports.#Rewrite.ArmaClassExporter.classes</title>
<polygon fill="none" stroke="black" points="650,-36 378.25,-36 378.25,0 650,0 650,-36"/>
<text text-anchor="middle" x="514.12" y="-12.57" font-family="Times New Roman,serif" font-size="14.00">Exports.#Rewrite.ArmaClassExporter.classes</text>
</g>
<!-- Exports.#Rewrite.ArmaClassExporter.classes.Arma -->
<g id="node4" class="node">
<title>Exports.#Rewrite.ArmaClassExporter.classes.Arma</title>
<polygon fill="none" stroke="black" points="928.25,-252 622,-252 622,-216 928.25,-216 928.25,-252"/>
<text text-anchor="middle" x="775.12" y="-228.57" font-family="Times New Roman,serif" font-size="14.00">Exports.#Rewrite.ArmaClassExporter.classes.Arma</text>
</g>
<!-- Exports.#Rewrite.ArmaClassExporter.classes.ExportProperties -->
<g id="node10" class="node">
<title>Exports.#Rewrite.ArmaClassExporter.classes.ExportProperties</title>
<polygon fill="none" stroke="black" points="1050.5,-324 679.75,-324 679.75,-288 1050.5,-288 1050.5,-324"/>
<text text-anchor="middle" x="865.12" y="-300.57" font-family="Times New Roman,serif" font-size="14.00">Exports.#Rewrite.ArmaClassExporter.classes.ExportProperties</text>
</g>
<!-- Exports.#Rewrite.ArmaClassExporter.classes.Arma&#45;&gt;Exports.#Rewrite.ArmaClassExporter.classes.ExportProperties -->
<g id="edge1" class="edge">
<title>Exports.#Rewrite.ArmaClassExporter.classes.Arma&#45;&gt;Exports.#Rewrite.ArmaClassExporter.classes.ExportProperties</title>
<path fill="none" stroke="black" d="M797.37,-252.3C808.51,-260.97 822.18,-271.6 834.32,-281.04"/>
<polygon fill="black" stroke="black" points="841.86,-286.91 831.2,-284.32 838.88,-284.58 833.97,-280.77 833.97,-280.77 833.97,-280.77 838.88,-284.58 836.73,-277.21 841.86,-286.91"/>
</g>
<!-- Exports.#Rewrite.ArmaClassExporter.classes.ArmaAmmo -->
<g id="node5" class="node">
<title>Exports.#Rewrite.ArmaClassExporter.classes.ArmaAmmo</title>
<polygon fill="none" stroke="black" points="864.38,-180 519.88,-180 519.88,-144 864.38,-144 864.38,-180"/>
<text text-anchor="middle" x="692.12" y="-156.57" font-family="Times New Roman,serif" font-size="14.00">Exports.#Rewrite.ArmaClassExporter.classes.ArmaAmmo</text>
</g>
<!-- Exports.#Rewrite.ArmaClassExporter.classes.ArmaAmmo&#45;&gt;Exports.#Rewrite.ArmaClassExporter.classes.Arma -->
<g id="edge2" class="edge">
<title>Exports.#Rewrite.ArmaClassExporter.classes.ArmaAmmo&#45;&gt;Exports.#Rewrite.ArmaClassExporter.classes.Arma</title>
<path fill="none" stroke="black" d="M712.64,-180.3C722.72,-188.8 735.03,-199.19 746.06,-208.49"/>
<polygon fill="black" stroke="black" points="753.63,-214.87 743.08,-211.86 750.73,-212.43 745.98,-208.42 745.98,-208.42 745.98,-208.42 750.73,-212.43 748.88,-204.98 753.63,-214.87"/>
</g>
<!-- Exports.#Rewrite.ArmaClassExporter.classes.ArmaLoadedWeapon -->
<g id="node6" class="node">
<title>Exports.#Rewrite.ArmaClassExporter.classes.ArmaLoadedWeapon</title>
<polygon fill="none" stroke="black" points="1064.25,-36 668,-36 668,0 1064.25,0 1064.25,-36"/>
<text text-anchor="middle" x="866.12" y="-12.57" font-family="Times New Roman,serif" font-size="14.00">Exports.#Rewrite.ArmaClassExporter.classes.ArmaLoadedWeapon</text>
</g>
<!-- Exports.#Rewrite.ArmaClassExporter.classes.ArmaMagazine -->
<g id="node7" class="node">
<title>Exports.#Rewrite.ArmaClassExporter.classes.ArmaMagazine</title>
<polygon fill="none" stroke="black" points="858.5,-108 499.75,-108 499.75,-72 858.5,-72 858.5,-108"/>
<text text-anchor="middle" x="679.12" y="-84.58" font-family="Times New Roman,serif" font-size="14.00">Exports.#Rewrite.ArmaClassExporter.classes.ArmaMagazine</text>
</g>
<!-- Exports.#Rewrite.ArmaClassExporter.classes.ArmaLoadedWeapon&#45;&gt;Exports.#Rewrite.ArmaClassExporter.classes.ArmaMagazine -->
<g id="edge3" class="edge">
<title>Exports.#Rewrite.ArmaClassExporter.classes.ArmaLoadedWeapon&#45;&gt;Exports.#Rewrite.ArmaClassExporter.classes.ArmaMagazine</title>
<path fill="none" stroke="black" d="M819.42,-36.48C794.11,-45.96 762.64,-57.74 735.92,-67.74"/>
<polygon fill="black" stroke="black" points="726.7,-71.19 734.49,-63.47 730.24,-69.87 736.07,-67.69 736.07,-67.69 736.07,-67.69 730.24,-69.87 737.64,-71.9 726.7,-71.19"/>
</g>
<!-- Exports.#Rewrite.ArmaClassExporter.classes.ArmaWeapon -->
<g id="node9" class="node">
<title>Exports.#Rewrite.ArmaClassExporter.classes.ArmaWeapon</title>
<polygon fill="none" stroke="black" points="1229.88,-108 876.38,-108 876.38,-72 1229.88,-72 1229.88,-108"/>
<text text-anchor="middle" x="1053.12" y="-84.58" font-family="Times New Roman,serif" font-size="14.00">Exports.#Rewrite.ArmaClassExporter.classes.ArmaWeapon</text>
</g>
<!-- Exports.#Rewrite.ArmaClassExporter.classes.ArmaLoadedWeapon&#45;&gt;Exports.#Rewrite.ArmaClassExporter.classes.ArmaWeapon -->
<g id="edge4" class="edge">
<title>Exports.#Rewrite.ArmaClassExporter.classes.ArmaLoadedWeapon&#45;&gt;Exports.#Rewrite.ArmaClassExporter.classes.ArmaWeapon</title>
<path fill="none" stroke="black" d="M912.83,-36.48C938.14,-45.96 969.61,-57.74 996.33,-67.74"/>
<polygon fill="black" stroke="black" points="1005.55,-71.19 994.61,-71.9 1002.01,-69.87 996.18,-67.69 996.18,-67.69 996.18,-67.69 1002.01,-69.87 997.76,-63.47 1005.55,-71.19"/>
</g>
<!-- Exports.#Rewrite.ArmaClassExporter.classes.ArmaMagazine&#45;&gt;Exports.#Rewrite.ArmaClassExporter.classes.Arma -->
<g id="edge5" class="edge">
<title>Exports.#Rewrite.ArmaClassExporter.classes.ArmaMagazine&#45;&gt;Exports.#Rewrite.ArmaClassExporter.classes.Arma</title>
<path fill="none" stroke="black" d="M584.24,-108.44C531.87,-122.33 482.68,-145.28 511.12,-180 525.28,-197.28 565.68,-209.05 610.74,-217.01"/>
<polygon fill="black" stroke="black" points="620.45,-218.65 609.84,-221.42 616.72,-218.02 610.59,-216.98 610.59,-216.98 610.59,-216.98 616.72,-218.02 611.34,-212.55 620.45,-218.65"/>
</g>
<!-- Exports.#Rewrite.ArmaClassExporter.classes.ArmaMagazine&#45;&gt;Exports.#Rewrite.ArmaClassExporter.classes.ArmaAmmo -->
<g id="edge6" class="edge">
<title>Exports.#Rewrite.ArmaClassExporter.classes.ArmaMagazine&#45;&gt;Exports.#Rewrite.ArmaClassExporter.classes.ArmaAmmo</title>
<path fill="none" stroke="black" d="M682.34,-108.3C683.72,-115.76 685.38,-124.68 686.93,-133.03"/>
<polygon fill="black" stroke="black" points="688.73,-142.7 682.48,-133.69 688.04,-138.98 686.9,-132.87 686.9,-132.87 686.9,-132.87 688.04,-138.98 691.32,-132.04 688.73,-142.7"/>
</g>
<!-- Exports.#Rewrite.ArmaClassExporter.classes.ArmaU -->
<g id="node8" class="node">
<title>Exports.#Rewrite.ArmaClassExporter.classes.ArmaU</title>
<polygon fill="none" stroke="black" points="1198.12,-180 882.12,-180 882.12,-144 1198.12,-144 1198.12,-180"/>
<text text-anchor="middle" x="1040.12" y="-156.57" font-family="Times New Roman,serif" font-size="14.00">Exports.#Rewrite.ArmaClassExporter.classes.ArmaU</text>
</g>
<!-- Exports.#Rewrite.ArmaClassExporter.classes.ArmaMagazine&#45;&gt;Exports.#Rewrite.ArmaClassExporter.classes.ArmaU -->
<g id="edge7" class="edge">
<title>Exports.#Rewrite.ArmaClassExporter.classes.ArmaMagazine&#45;&gt;Exports.#Rewrite.ArmaClassExporter.classes.ArmaU</title>
<path fill="none" stroke="black" d="M769.29,-108.48C820.97,-118.5 885.96,-131.11 939.32,-141.45"/>
<polygon fill="black" stroke="black" points="948.98,-143.33 938.3,-145.84 945.26,-142.61 939.16,-141.42 939.16,-141.42 939.16,-141.42 945.26,-142.61 940.02,-137 948.98,-143.33"/>
</g>
<!-- Exports.#Rewrite.ArmaClassExporter.classes.ArmaU&#45;&gt;Exports.#Rewrite.ArmaClassExporter.classes.Arma -->
<g id="edge8" class="edge">
<title>Exports.#Rewrite.ArmaClassExporter.classes.ArmaU&#45;&gt;Exports.#Rewrite.ArmaClassExporter.classes.Arma</title>
<path fill="none" stroke="black" d="M973.94,-180.48C936.8,-190.29 890.31,-202.57 851.62,-212.79"/>
<polygon fill="black" stroke="black" points="842.11,-215.31 850.62,-208.4 845.76,-214.34 851.77,-212.75 851.77,-212.75 851.77,-212.75 845.76,-214.34 852.92,-217.1 842.11,-215.31"/>
</g>
<!-- Exports.#Rewrite.ArmaClassExporter.classes.ArmaU&#45;&gt;Exports.#Rewrite.ArmaClassExporter.classes.ExportProperties -->
<g id="edge9" class="edge">
<title>Exports.#Rewrite.ArmaClassExporter.classes.ArmaU&#45;&gt;Exports.#Rewrite.ArmaClassExporter.classes.ExportProperties</title>
<path fill="none" stroke="black" d="M1021.14,-180.19C1000.76,-198.46 967.23,-227.97 937.12,-252 924.85,-261.8 911.03,-272.13 898.8,-281.05"/>
<polygon fill="black" stroke="black" points="890.8,-286.84 896.26,-277.33 893.86,-284.62 898.9,-280.98 898.9,-280.98 898.9,-280.98 893.86,-284.62 901.54,-284.62 890.8,-286.84"/>
</g>
<!-- Exports.#Rewrite.ArmaClassExporter.classes.ArmaWeapon&#45;&gt;Exports.#Rewrite.ArmaClassExporter.classes.ArmaU -->
<g id="edge10" class="edge">
<title>Exports.#Rewrite.ArmaClassExporter.classes.ArmaWeapon&#45;&gt;Exports.#Rewrite.ArmaClassExporter.classes.ArmaU</title>
<path fill="none" stroke="black" d="M1049.91,-108.3C1048.53,-115.76 1046.87,-124.68 1045.32,-133.03"/>
<polygon fill="black" stroke="black" points="1043.52,-142.7 1040.93,-132.04 1044.21,-138.98 1045.35,-132.87 1045.35,-132.87 1045.35,-132.87 1044.21,-138.98 1049.77,-133.69 1043.52,-142.7"/>
</g>
<!-- Exports.#Rewrite.ArmaClassExporter.classes.tests -->
<g id="node11" class="node">
<title>Exports.#Rewrite.ArmaClassExporter.classes.tests</title>
<polygon fill="none" stroke="black" points="1383.62,-36 1082.62,-36 1082.62,0 1383.62,0 1383.62,-36"/>
<text text-anchor="middle" x="1233.12" y="-12.57" font-family="Times New Roman,serif" font-size="14.00">Exports.#Rewrite.ArmaClassExporter.classes.tests</text>
</g>
<!-- Exports.#Rewrite.ArmaClassExporter.classes.tests.example_ammo_class -->
<g id="node12" class="node">
<title>Exports.#Rewrite.ArmaClassExporter.classes.tests.example_ammo_class</title>
<polygon fill="none" stroke="black" points="1829,-36 1401.25,-36 1401.25,0 1829,0 1829,-36"/>
<text text-anchor="middle" x="1615.12" y="-12.57" font-family="Times New Roman,serif" font-size="14.00">Exports.#Rewrite.ArmaClassExporter.classes.tests.example_ammo_class</text>
</g>
<!-- Exports.#Rewrite.ArmaClassExporter.classes.tests.example_magazine_class -->
<g id="node13" class="node">
<title>Exports.#Rewrite.ArmaClassExporter.classes.tests.example_magazine_class</title>
<polygon fill="none" stroke="black" points="2291.25,-36 1847,-36 1847,0 2291.25,0 2291.25,-36"/>
<text text-anchor="middle" x="2069.12" y="-12.57" font-family="Times New Roman,serif" font-size="14.00">Exports.#Rewrite.ArmaClassExporter.classes.tests.example_magazine_class</text>
</g>
<!-- Exports.#Rewrite.ArmaClassExporter.classes.tests.example_weapon_class -->
<g id="node14" class="node">
<title>Exports.#Rewrite.ArmaClassExporter.classes.tests.example_weapon_class</title>
<polygon fill="none" stroke="black" points="2746.5,-36 2309.75,-36 2309.75,0 2746.5,0 2746.5,-36"/>
<text text-anchor="middle" x="2528.12" y="-12.57" font-family="Times New Roman,serif" font-size="14.00">Exports.#Rewrite.ArmaClassExporter.classes.tests.example_weapon_class</text>
</g>
<!-- Exports.#Rewrite.ArmaClassExporter.classes.tests.test_Arma -->
<g id="node15" class="node">
<title>Exports.#Rewrite.ArmaClassExporter.classes.tests.test_Arma</title>
<polygon fill="none" stroke="black" points="3127.38,-36 2764.88,-36 2764.88,0 3127.38,0 3127.38,-36"/>
<text text-anchor="middle" x="2946.12" y="-12.57" font-family="Times New Roman,serif" font-size="14.00">Exports.#Rewrite.ArmaClassExporter.classes.tests.test_Arma</text>
</g>
<!-- Exports.#Rewrite.ArmaClassExporter.classes.tests.test_ArmaAmmo -->
<g id="node16" class="node">
<title>Exports.#Rewrite.ArmaClassExporter.classes.tests.test_ArmaAmmo</title>
<polygon fill="none" stroke="black" points="3546.5,-36 3145.75,-36 3145.75,0 3546.5,0 3546.5,-36"/>
<text text-anchor="middle" x="3346.12" y="-12.57" font-family="Times New Roman,serif" font-size="14.00">Exports.#Rewrite.ArmaClassExporter.classes.tests.test_ArmaAmmo</text>
</g>
<!-- Exports.#Rewrite.ArmaClassExporter.classes.tests.test_ArmaMagazine -->
<g id="node17" class="node">
<title>Exports.#Rewrite.ArmaClassExporter.classes.tests.test_ArmaMagazine</title>
<polygon fill="none" stroke="black" points="3979.62,-36 3564.62,-36 3564.62,0 3979.62,0 3979.62,-36"/>
<text text-anchor="middle" x="3772.12" y="-12.57" font-family="Times New Roman,serif" font-size="14.00">Exports.#Rewrite.ArmaClassExporter.classes.tests.test_ArmaMagazine</text>
</g>
<!-- Exports.#Rewrite.ArmaClassExporter.eval_param_value -->
<g id="node18" class="node">
<title>Exports.#Rewrite.ArmaClassExporter.eval_param_value</title>
<polygon fill="none" stroke="black" points="4329,-36 3997.25,-36 3997.25,0 4329,0 4329,-36"/>
<text text-anchor="middle" x="4163.12" y="-12.57" font-family="Times New Roman,serif" font-size="14.00">Exports.#Rewrite.ArmaClassExporter.eval_param_value</text>
</g>
<!-- Exports.#Rewrite.tests -->
<g id="node19" class="node">
<title>Exports.#Rewrite.tests</title>
<polygon fill="none" stroke="black" points="4490.88,-36 4347.38,-36 4347.38,0 4490.88,0 4490.88,-36"/>
<text text-anchor="middle" x="4419.12" y="-12.57" font-family="Times New Roman,serif" font-size="14.00">Exports.#Rewrite.tests</text>
</g>
<!-- Exports.#Rewrite.tests.test_eval_param_value -->
<g id="node20" class="node">
<title>Exports.#Rewrite.tests.test_eval_param_value</title>
<polygon fill="none" stroke="black" points="4783.12,-36 4509.12,-36 4509.12,0 4783.12,0 4783.12,-36"/>
<text text-anchor="middle" x="4646.12" y="-12.57" font-family="Times New Roman,serif" font-size="14.00">Exports.#Rewrite.tests.test_eval_param_value</text>
</g>
</g>
</svg>
