<?xml version="1.0" encoding="UTF-8" standalone="no"?>
<!DOCTYPE svg PUBLIC "-//W3C//DTD SVG 1.1//EN"
 "http://www.w3.org/Graphics/SVG/1.1/DTD/svg11.dtd">
<!-- Generated by graphviz version 11.0.0 (20240428.1522)
 -->
<!-- Title: packages Pages: 1 -->
<svg width="3761pt" height="332pt"
 viewBox="0.00 0.00 3761.12 332.00" xmlns="http://www.w3.org/2000/svg" xmlns:xlink="http://www.w3.org/1999/xlink">
<g id="graph0" class="graph" transform="scale(1 1) rotate(0) translate(4 328)">
<title>packages</title>
<polygon fill="white" stroke="none" points="-4,4 -4,-328 3757.12,-328 3757.12,4 -4,4"/>
<!-- Exports.#Rewrite -->
<g id="node1" class="node">
<title>Exports.#Rewrite</title>
<polygon fill="#77aadd" stroke="#77aadd" points="114.25,-36 0,-36 0,0 114.25,0 114.25,-36"/>
<text text-anchor="middle" x="57.12" y="-12.57" font-family="Times New Roman,serif" font-size="14.00">Exports.#Rewrite</text>
</g>
<!-- Exports.#Rewrite.ArmaClassExporter -->
<g id="node2" class="node">
<title>Exports.#Rewrite.ArmaClassExporter</title>
<polygon fill="#77aadd" stroke="#77aadd" points="360.25,-36 132,-36 132,0 360.25,0 360.25,-36"/>
<text text-anchor="middle" x="246.12" y="-12.57" font-family="Times New Roman,serif" font-size="14.00">Exports.#Rewrite.ArmaClassExporter</text>
</g>
<!-- Exports.#Rewrite.ArmaClassExporter.ParseExports -->
<g id="node3" class="node">
<title>Exports.#Rewrite.ArmaClassExporter.ParseExports</title>
<polygon fill="#77aadd" stroke="#77aadd" points="685.62,-36 378.62,-36 378.62,0 685.62,0 685.62,-36"/>
<text text-anchor="middle" x="532.12" y="-12.57" font-family="Times New Roman,serif" font-size="14.00">Exports.#Rewrite.ArmaClassExporter.ParseExports</text>
</g>
<!-- Exports.#Rewrite.ArmaClassExporter.classes -->
<g id="node4" class="node">
<title>Exports.#Rewrite.ArmaClassExporter.classes</title>
<polygon fill="#77aadd" stroke="#77aadd" points="975,-36 703.25,-36 703.25,0 975,0 975,-36"/>
<text text-anchor="middle" x="839.12" y="-12.57" font-family="Times New Roman,serif" font-size="14.00">Exports.#Rewrite.ArmaClassExporter.classes</text>
</g>
<!-- Exports.#Rewrite.ArmaClassExporter.classes.Arma -->
<g id="node5" class="node">
<title>Exports.#Rewrite.ArmaClassExporter.classes.Arma</title>
<polygon fill="#77aadd" stroke="#77aadd" points="1446.25,-252 1140,-252 1140,-216 1446.25,-216 1446.25,-252"/>
<text text-anchor="middle" x="1293.12" y="-228.57" font-family="Times New Roman,serif" font-size="14.00">Exports.#Rewrite.ArmaClassExporter.classes.Arma</text>
</g>
<!-- Exports.#Rewrite.ArmaClassExporter.classes.ExportProperties -->
<g id="node12" class="node">
<title>Exports.#Rewrite.ArmaClassExporter.classes.ExportProperties</title>
<polygon fill="#77aadd" stroke="#77aadd" points="1478.5,-324 1107.75,-324 1107.75,-288 1478.5,-288 1478.5,-324"/>
<text text-anchor="middle" x="1293.12" y="-300.57" font-family="Times New Roman,serif" font-size="14.00">Exports.#Rewrite.ArmaClassExporter.classes.ExportProperties</text>
</g>
<!-- Exports.#Rewrite.ArmaClassExporter.classes.Arma&#45;&gt;Exports.#Rewrite.ArmaClassExporter.classes.ExportProperties -->
<g id="edge1" class="edge">
<title>Exports.#Rewrite.ArmaClassExporter.classes.Arma&#45;&gt;Exports.#Rewrite.ArmaClassExporter.classes.ExportProperties</title>
<path fill="none" stroke="black" d="M1293.12,-252.3C1293.12,-259.68 1293.12,-268.48 1293.12,-276.75"/>
<polygon fill="black" stroke="black" points="1293.13,-286.68 1288.63,-276.68 1293.13,-282.9 1293.13,-276.68 1293.13,-276.68 1293.13,-276.68 1293.13,-282.9 1297.63,-276.68 1293.13,-286.68"/>
</g>
<!-- Exports.#Rewrite.ArmaClassExporter.classes.ArmaAmmo -->
<g id="node6" class="node">
<title>Exports.#Rewrite.ArmaClassExporter.classes.ArmaAmmo</title>
<polygon fill="#77aadd" stroke="#77aadd" points="1265.38,-180 920.88,-180 920.88,-144 1265.38,-144 1265.38,-180"/>
<text text-anchor="middle" x="1093.12" y="-156.57" font-family="Times New Roman,serif" font-size="14.00">Exports.#Rewrite.ArmaClassExporter.classes.ArmaAmmo</text>
</g>
<!-- Exports.#Rewrite.ArmaClassExporter.classes.ArmaAmmo&#45;&gt;Exports.#Rewrite.ArmaClassExporter.classes.Arma -->
<g id="edge2" class="edge">
<title>Exports.#Rewrite.ArmaClassExporter.classes.ArmaAmmo&#45;&gt;Exports.#Rewrite.ArmaClassExporter.classes.Arma</title>
<path fill="none" stroke="black" d="M1143.08,-180.48C1170.38,-190.04 1204.4,-201.95 1233.14,-212"/>
<polygon fill="black" stroke="black" points="1242.31,-215.22 1231.39,-216.16 1238.74,-213.97 1232.87,-211.91 1232.87,-211.91 1232.87,-211.91 1238.74,-213.97 1234.36,-207.66 1242.31,-215.22"/>
</g>
<!-- Exports.#Rewrite.ArmaClassExporter.classes.ArmaInfantryWeapon -->
<g id="node7" class="node">
<title>Exports.#Rewrite.ArmaClassExporter.classes.ArmaInfantryWeapon</title>
<polygon fill="#77aadd" stroke="#77aadd" points="1824.62,-108 1427.62,-108 1427.62,-72 1824.62,-72 1824.62,-108"/>
<text text-anchor="middle" x="1626.12" y="-84.58" font-family="Times New Roman,serif" font-size="14.00">Exports.#Rewrite.ArmaClassExporter.classes.ArmaInfantryWeapon</text>
</g>
<!-- Exports.#Rewrite.ArmaClassExporter.classes.ArmaWeapon -->
<g id="node11" class="node">
<title>Exports.#Rewrite.ArmaClassExporter.classes.ArmaWeapon</title>
<polygon fill="#77aadd" stroke="#77aadd" points="1674.88,-180 1321.38,-180 1321.38,-144 1674.88,-144 1674.88,-180"/>
<text text-anchor="middle" x="1498.12" y="-156.57" font-family="Times New Roman,serif" font-size="14.00">Exports.#Rewrite.ArmaClassExporter.classes.ArmaWeapon</text>
</g>
<!-- Exports.#Rewrite.ArmaClassExporter.classes.ArmaInfantryWeapon&#45;&gt;Exports.#Rewrite.ArmaClassExporter.classes.ArmaWeapon -->
<g id="edge3" class="edge">
<title>Exports.#Rewrite.ArmaClassExporter.classes.ArmaInfantryWeapon&#45;&gt;Exports.#Rewrite.ArmaClassExporter.classes.ArmaWeapon</title>
<path fill="none" stroke="black" d="M1594.16,-108.48C1577.54,-117.57 1557.03,-128.78 1539.25,-138.51"/>
<polygon fill="black" stroke="black" points="1530.76,-143.15 1537.37,-134.41 1534.07,-141.34 1539.53,-138.36 1539.53,-138.36 1539.53,-138.36 1534.07,-141.34 1541.69,-142.3 1530.76,-143.15"/>
</g>
<!-- Exports.#Rewrite.ArmaClassExporter.classes.ArmaLoadedInfantryWeapon -->
<g id="node8" class="node">
<title>Exports.#Rewrite.ArmaClassExporter.classes.ArmaLoadedInfantryWeapon</title>
<polygon fill="#77aadd" stroke="#77aadd" points="1847,-36 1407.25,-36 1407.25,0 1847,0 1847,-36"/>
<text text-anchor="middle" x="1627.12" y="-12.57" font-family="Times New Roman,serif" font-size="14.00">Exports.#Rewrite.ArmaClassExporter.classes.ArmaLoadedInfantryWeapon</text>
</g>
<!-- Exports.#Rewrite.ArmaClassExporter.classes.ArmaLoadedInfantryWeapon&#45;&gt;Exports.#Rewrite.ArmaClassExporter.classes.ArmaInfantryWeapon -->
<g id="edge4" class="edge">
<title>Exports.#Rewrite.ArmaClassExporter.classes.ArmaLoadedInfantryWeapon&#45;&gt;Exports.#Rewrite.ArmaClassExporter.classes.ArmaInfantryWeapon</title>
<path fill="none" stroke="black" d="M1626.88,-36.3C1626.77,-43.68 1626.65,-52.48 1626.53,-60.75"/>
<polygon fill="black" stroke="black" points="1626.39,-70.68 1622.03,-60.61 1626.44,-66.9 1626.53,-60.68 1626.53,-60.68 1626.53,-60.68 1626.44,-66.9 1631.03,-60.74 1626.39,-70.68"/>
</g>
<!-- Exports.#Rewrite.ArmaClassExporter.classes.ArmaMagazine -->
<g id="node10" class="node">
<title>Exports.#Rewrite.ArmaClassExporter.classes.ArmaMagazine</title>
<polygon fill="#77aadd" stroke="#77aadd" points="1371.5,-108 1012.75,-108 1012.75,-72 1371.5,-72 1371.5,-108"/>
<text text-anchor="middle" x="1192.12" y="-84.58" font-family="Times New Roman,serif" font-size="14.00">Exports.#Rewrite.ArmaClassExporter.classes.ArmaMagazine</text>
</g>
<!-- Exports.#Rewrite.ArmaClassExporter.classes.ArmaLoadedInfantryWeapon&#45;&gt;Exports.#Rewrite.ArmaClassExporter.classes.ArmaMagazine -->
<g id="edge5" class="edge">
<title>Exports.#Rewrite.ArmaClassExporter.classes.ArmaLoadedInfantryWeapon&#45;&gt;Exports.#Rewrite.ArmaClassExporter.classes.ArmaMagazine</title>
<path fill="none" stroke="black" d="M1518.48,-36.48C1455.56,-46.61 1376.26,-59.37 1311.59,-69.78"/>
<polygon fill="black" stroke="black" points="1301.72,-71.36 1310.88,-65.33 1305.45,-70.76 1311.59,-69.78 1311.59,-69.78 1311.59,-69.78 1305.45,-70.76 1312.31,-74.22 1301.72,-71.36"/>
</g>
<!-- Exports.#Rewrite.ArmaClassExporter.classes.ArmaLoadedWeapon -->
<g id="node9" class="node">
<title>Exports.#Rewrite.ArmaClassExporter.classes.ArmaLoadedWeapon</title>
<polygon fill="#77aadd" stroke="#77aadd" points="1389.25,-36 993,-36 993,0 1389.25,0 1389.25,-36"/>
<text text-anchor="middle" x="1191.12" y="-12.57" font-family="Times New Roman,serif" font-size="14.00">Exports.#Rewrite.ArmaClassExporter.classes.ArmaLoadedWeapon</text>
</g>
<!-- Exports.#Rewrite.ArmaClassExporter.classes.ArmaLoadedWeapon&#45;&gt;Exports.#Rewrite.ArmaClassExporter.classes.ArmaMagazine -->
<g id="edge6" class="edge">
<title>Exports.#Rewrite.ArmaClassExporter.classes.ArmaLoadedWeapon&#45;&gt;Exports.#Rewrite.ArmaClassExporter.classes.ArmaMagazine</title>
<path fill="none" stroke="black" d="M1191.37,-36.3C1191.48,-43.68 1191.6,-52.48 1191.72,-60.75"/>
<polygon fill="black" stroke="black" points="1191.86,-70.68 1187.22,-60.74 1191.81,-66.9 1191.72,-60.68 1191.72,-60.68 1191.72,-60.68 1191.81,-66.9 1196.22,-60.61 1191.86,-70.68"/>
</g>
<!-- Exports.#Rewrite.ArmaClassExporter.classes.ArmaLoadedWeapon&#45;&gt;Exports.#Rewrite.ArmaClassExporter.classes.ArmaWeapon -->
<g id="edge7" class="edge">
<title>Exports.#Rewrite.ArmaClassExporter.classes.ArmaLoadedWeapon&#45;&gt;Exports.#Rewrite.ArmaClassExporter.classes.ArmaWeapon</title>
<path fill="none" stroke="black" d="M1286.37,-36.41C1317.49,-44.49 1351.41,-55.96 1380.12,-72 1400.72,-83.5 1400.61,-93.39 1419.12,-108 1432.29,-118.39 1447.45,-128.88 1460.94,-137.75"/>
<polygon fill="black" stroke="black" points="1468.95,-142.95 1458.11,-141.28 1465.77,-140.89 1460.56,-137.51 1460.56,-137.51 1460.56,-137.51 1465.77,-140.89 1463.01,-133.73 1468.95,-142.95"/>
</g>
<!-- Exports.#Rewrite.ArmaClassExporter.classes.ArmaMagazine&#45;&gt;Exports.#Rewrite.ArmaClassExporter.classes.Arma -->
<g id="edge8" class="edge">
<title>Exports.#Rewrite.ArmaClassExporter.classes.ArmaMagazine&#45;&gt;Exports.#Rewrite.ArmaClassExporter.classes.Arma</title>
<path fill="none" stroke="black" d="M1231.81,-108.31C1247.21,-116.92 1263.64,-128.79 1274.12,-144 1286.4,-161.8 1290.98,-185.99 1292.58,-204.66"/>
<polygon fill="black" stroke="black" points="1293.18,-214.52 1288.08,-204.81 1292.95,-210.75 1292.58,-204.54 1292.58,-204.54 1292.58,-204.54 1292.95,-210.75 1297.07,-204.27 1293.18,-214.52"/>
</g>
<!-- Exports.#Rewrite.ArmaClassExporter.classes.ArmaMagazine&#45;&gt;Exports.#Rewrite.ArmaClassExporter.classes.ArmaAmmo -->
<g id="edge9" class="edge">
<title>Exports.#Rewrite.ArmaClassExporter.classes.ArmaMagazine&#45;&gt;Exports.#Rewrite.ArmaClassExporter.classes.ArmaAmmo</title>
<path fill="none" stroke="black" d="M1167.4,-108.48C1155.02,-117.24 1139.86,-127.96 1126.47,-137.42"/>
<polygon fill="black" stroke="black" points="1118.53,-143.04 1124.1,-133.59 1121.62,-140.85 1126.7,-137.26 1126.7,-137.26 1126.7,-137.26 1121.62,-140.85 1129.29,-140.94 1118.53,-143.04"/>
</g>
<!-- Exports.#Rewrite.ArmaClassExporter.classes.ArmaWeapon&#45;&gt;Exports.#Rewrite.ArmaClassExporter.classes.Arma -->
<g id="edge10" class="edge">
<title>Exports.#Rewrite.ArmaClassExporter.classes.ArmaWeapon&#45;&gt;Exports.#Rewrite.ArmaClassExporter.classes.Arma</title>
<path fill="none" stroke="black" d="M1446.92,-180.48C1418.93,-190.04 1384.07,-201.95 1354.61,-212"/>
<polygon fill="black" stroke="black" points="1345.18,-215.22 1353.19,-207.73 1348.76,-214 1354.65,-211.99 1354.65,-211.99 1354.65,-211.99 1348.76,-214 1356.1,-216.25 1345.18,-215.22"/>
</g>
<!-- Exports.#Rewrite.ArmaClassExporter.classes.tests -->
<g id="node13" class="node">
<title>Exports.#Rewrite.ArmaClassExporter.classes.tests</title>
<polygon fill="#77aadd" stroke="#77aadd" points="2165.62,-36 1864.62,-36 1864.62,0 2165.62,0 2165.62,-36"/>
<text text-anchor="middle" x="2015.12" y="-12.57" font-family="Times New Roman,serif" font-size="14.00">Exports.#Rewrite.ArmaClassExporter.classes.tests</text>
</g>
<!-- Exports.#Rewrite.ArmaClassExporter.classes.tests.mock_module -->
<g id="node14" class="node">
<title>Exports.#Rewrite.ArmaClassExporter.classes.tests.mock_module</title>
<polygon fill="#77aadd" stroke="#77aadd" points="2568.62,-36 2183.62,-36 2183.62,0 2568.62,0 2568.62,-36"/>
<text text-anchor="middle" x="2376.12" y="-12.57" font-family="Times New Roman,serif" font-size="14.00">Exports.#Rewrite.ArmaClassExporter.classes.tests.mock_module</text>
</g>
<!-- Exports.#Rewrite.ArmaClassExporter.classes.tests.test_Arma -->
<g id="node15" class="node">
<title>Exports.#Rewrite.ArmaClassExporter.classes.tests.test_Arma</title>
<polygon fill="#77aadd" stroke="#77aadd" points="2949.38,-36 2586.88,-36 2586.88,0 2949.38,0 2949.38,-36"/>
<text text-anchor="middle" x="2768.12" y="-12.57" font-family="Times New Roman,serif" font-size="14.00">Exports.#Rewrite.ArmaClassExporter.classes.tests.test_Arma</text>
</g>
<!-- Exports.#Rewrite.ArmaClassExporter.eval_param_value -->
<g id="node16" class="node">
<title>Exports.#Rewrite.ArmaClassExporter.eval_param_value</title>
<polygon fill="#77aadd" stroke="#77aadd" points="3299,-36 2967.25,-36 2967.25,0 3299,0 3299,-36"/>
<text text-anchor="middle" x="3133.12" y="-12.57" font-family="Times New Roman,serif" font-size="14.00">Exports.#Rewrite.ArmaClassExporter.eval_param_value</text>
</g>
<!-- Exports.#Rewrite.tests -->
<g id="node17" class="node">
<title>Exports.#Rewrite.tests</title>
<polygon fill="#77aadd" stroke="#77aadd" points="3460.88,-36 3317.38,-36 3317.38,0 3460.88,0 3460.88,-36"/>
<text text-anchor="middle" x="3389.12" y="-12.57" font-family="Times New Roman,serif" font-size="14.00">Exports.#Rewrite.tests</text>
</g>
<!-- Exports.#Rewrite.tests.test_eval_param_value -->
<g id="node18" class="node">
<title>Exports.#Rewrite.tests.test_eval_param_value</title>
<polygon fill="#77aadd" stroke="#77aadd" points="3753.12,-36 3479.12,-36 3479.12,0 3753.12,0 3753.12,-36"/>
<text text-anchor="middle" x="3616.12" y="-12.57" font-family="Times New Roman,serif" font-size="14.00">Exports.#Rewrite.tests.test_eval_param_value</text>
</g>
</g>
</svg>
